<mxfile host="app.diagrams.net" modified="2020-11-19T15:17:33.052Z" agent="5.0 (Windows NT 10.0; Win64; x64) AppleWebKit/537.36 (KHTML, like Gecko) Chrome/87.0.4280.66 Safari/537.36" etag="fGtcAevOxtfgSNIwJFJZ" version="13.9.9" type="github">
  <diagram id="QU8UmBduOuMH3bUtYPbM" name="Page-1">
    <mxGraphModel dx="2249" dy="800" grid="1" gridSize="10" guides="1" tooltips="1" connect="1" arrows="1" fold="1" page="1" pageScale="1" pageWidth="827" pageHeight="1169" math="0" shadow="0">
      <root>
        <mxCell id="0" />
        <mxCell id="1" parent="0" />
        <mxCell id="IRKXaup-ZwXv_hw7l-AZ-4" value="" style="edgeStyle=orthogonalEdgeStyle;rounded=0;orthogonalLoop=1;jettySize=auto;html=1;fontSize=23;" edge="1" parent="1" source="IRKXaup-ZwXv_hw7l-AZ-1" target="IRKXaup-ZwXv_hw7l-AZ-2">
          <mxGeometry relative="1" as="geometry" />
        </mxCell>
        <mxCell id="IRKXaup-ZwXv_hw7l-AZ-1" value="in Content" style="rounded=1;whiteSpace=wrap;html=1;fontSize=23;" vertex="1" parent="1">
          <mxGeometry x="-100" y="225" width="140" height="60" as="geometry" />
        </mxCell>
        <mxCell id="IRKXaup-ZwXv_hw7l-AZ-5" style="edgeStyle=orthogonalEdgeStyle;rounded=0;orthogonalLoop=1;jettySize=auto;html=1;entryX=0;entryY=0.091;entryDx=0;entryDy=0;entryPerimeter=0;exitX=1;exitY=0.25;exitDx=0;exitDy=0;fontSize=23;" edge="1" parent="1" source="IRKXaup-ZwXv_hw7l-AZ-2" target="IRKXaup-ZwXv_hw7l-AZ-3">
          <mxGeometry relative="1" as="geometry" />
        </mxCell>
        <mxCell id="IRKXaup-ZwXv_hw7l-AZ-7" value="Pfad / Datentype" style="edgeLabel;html=1;align=center;verticalAlign=middle;resizable=0;points=[];fontSize=23;" vertex="1" connectable="0" parent="IRKXaup-ZwXv_hw7l-AZ-5">
          <mxGeometry x="-0.2163" y="2" relative="1" as="geometry">
            <mxPoint y="34.5" as="offset" />
          </mxGeometry>
        </mxCell>
        <mxCell id="IRKXaup-ZwXv_hw7l-AZ-2" value="Maske" style="rounded=1;whiteSpace=wrap;html=1;fontSize=23;" vertex="1" parent="1">
          <mxGeometry x="120" y="200" width="120" height="110" as="geometry" />
        </mxCell>
        <mxCell id="IRKXaup-ZwXv_hw7l-AZ-6" style="edgeStyle=orthogonalEdgeStyle;rounded=0;orthogonalLoop=1;jettySize=auto;html=1;exitX=0;exitY=0.25;exitDx=0;exitDy=0;entryX=1;entryY=0.75;entryDx=0;entryDy=0;fontSize=23;" edge="1" parent="1" source="IRKXaup-ZwXv_hw7l-AZ-3" target="IRKXaup-ZwXv_hw7l-AZ-2">
          <mxGeometry relative="1" as="geometry" />
        </mxCell>
        <mxCell id="IRKXaup-ZwXv_hw7l-AZ-10" style="edgeStyle=orthogonalEdgeStyle;rounded=0;orthogonalLoop=1;jettySize=auto;html=1;exitX=0;exitY=0.75;exitDx=0;exitDy=0;entryX=1;entryY=0.75;entryDx=0;entryDy=0;fontSize=23;" edge="1" parent="1" source="IRKXaup-ZwXv_hw7l-AZ-3" target="IRKXaup-ZwXv_hw7l-AZ-8">
          <mxGeometry relative="1" as="geometry" />
        </mxCell>
        <mxCell id="IRKXaup-ZwXv_hw7l-AZ-3" value="Data Source" style="rounded=1;whiteSpace=wrap;html=1;fontSize=23;" vertex="1" parent="1">
          <mxGeometry x="520" y="200" width="220" height="330" as="geometry" />
        </mxCell>
        <mxCell id="IRKXaup-ZwXv_hw7l-AZ-9" style="edgeStyle=orthogonalEdgeStyle;rounded=0;orthogonalLoop=1;jettySize=auto;html=1;entryX=0;entryY=0.697;entryDx=0;entryDy=0;entryPerimeter=0;fontSize=23;" edge="1" parent="1" source="IRKXaup-ZwXv_hw7l-AZ-8" target="IRKXaup-ZwXv_hw7l-AZ-3">
          <mxGeometry relative="1" as="geometry" />
        </mxCell>
        <mxCell id="IRKXaup-ZwXv_hw7l-AZ-11" value="Inhalt" style="edgeLabel;html=1;align=center;verticalAlign=middle;resizable=0;points=[];fontSize=23;" vertex="1" connectable="0" parent="IRKXaup-ZwXv_hw7l-AZ-9">
          <mxGeometry x="-0.2167" y="-2" relative="1" as="geometry">
            <mxPoint y="-12.01" as="offset" />
          </mxGeometry>
        </mxCell>
        <mxCell id="IRKXaup-ZwXv_hw7l-AZ-8" value="In Workflow" style="rounded=1;whiteSpace=wrap;html=1;fontSize=23;" vertex="1" parent="1">
          <mxGeometry x="230" y="400" width="170" height="60" as="geometry" />
        </mxCell>
      </root>
    </mxGraphModel>
  </diagram>
</mxfile>
